<svg xmlns="http://www.w3.org/2000/svg" xmlns:xlink="http://www.w3.org/1999/xlink" width="256" zoomAndPan="magnify" viewBox="0 0 192 191.999996" height="256" preserveAspectRatio="xMidYMid meet" version="1.0"><defs><clipPath id="4dd3a4ad91"><path d="M 22.5 0 L 169.5 0 C 175.46875 0 181.191406 2.371094 185.410156 6.589844 C 189.628906 10.808594 192 16.53125 192 22.5 L 192 169.5 C 192 181.925781 181.925781 192 169.5 192 L 22.5 192 C 10.074219 192 0 181.925781 0 169.5 L 0 22.5 C 0 10.074219 10.074219 0 22.5 0 Z M 22.5 0 " clip-rule="nonzero"/></clipPath><linearGradient x1="0" gradientTransform="matrix(0.75, 0, 0, 0.75, 0.000002, 0)" y1="128" x2="255.999989" gradientUnits="userSpaceOnUse" y2="128" id="5c218f462b"><stop stop-opacity="1" stop-color="rgb(45.899963%, 67.799377%, 35.299683%)" offset="0"/><stop stop-opacity="1" stop-color="rgb(45.791626%, 67.709351%, 35.206604%)" offset="0.0078125"/><stop stop-opacity="1" stop-color="rgb(45.576477%, 67.527771%, 35.023499%)" offset="0.015625"/><stop stop-opacity="1" stop-color="rgb(45.361328%, 67.347717%, 34.840393%)" offset="0.0234375"/><stop stop-opacity="1" stop-color="rgb(45.146179%, 67.167664%, 34.655762%)" offset="0.03125"/><stop stop-opacity="1" stop-color="rgb(44.932556%, 66.98761%, 34.472656%)" offset="0.0390625"/><stop stop-opacity="1" stop-color="rgb(44.717407%, 66.80603%, 34.289551%)" offset="0.046875"/><stop stop-opacity="1" stop-color="rgb(44.502258%, 66.625977%, 34.104919%)" offset="0.0546875"/><stop stop-opacity="1" stop-color="rgb(44.287109%, 66.445923%, 33.921814%)" offset="0.0625"/><stop stop-opacity="1" stop-color="rgb(44.07196%, 66.264343%, 33.738708%)" offset="0.0703125"/><stop stop-opacity="1" stop-color="rgb(43.858337%, 66.08429%, 33.555603%)" offset="0.078125"/><stop stop-opacity="1" stop-color="rgb(43.643188%, 65.904236%, 33.370972%)" offset="0.0859375"/><stop stop-opacity="1" stop-color="rgb(43.42804%, 65.724182%, 33.187866%)" offset="0.09375"/><stop stop-opacity="1" stop-color="rgb(43.212891%, 65.542603%, 33.004761%)" offset="0.101562"/><stop stop-opacity="1" stop-color="rgb(42.997742%, 65.362549%, 32.820129%)" offset="0.109375"/><stop stop-opacity="1" stop-color="rgb(42.784119%, 65.182495%, 32.637024%)" offset="0.117188"/><stop stop-opacity="1" stop-color="rgb(42.56897%, 65.002441%, 32.453918%)" offset="0.125"/><stop stop-opacity="1" stop-color="rgb(42.353821%, 64.820862%, 32.269287%)" offset="0.132812"/><stop stop-opacity="1" stop-color="rgb(42.138672%, 64.640808%, 32.086182%)" offset="0.140625"/><stop stop-opacity="1" stop-color="rgb(41.923523%, 64.460754%, 31.903076%)" offset="0.148438"/><stop stop-opacity="1" stop-color="rgb(41.7099%, 64.279175%, 31.718445%)" offset="0.15625"/><stop stop-opacity="1" stop-color="rgb(41.494751%, 64.099121%, 31.535339%)" offset="0.164062"/><stop stop-opacity="1" stop-color="rgb(41.279602%, 63.919067%, 31.352234%)" offset="0.171875"/><stop stop-opacity="1" stop-color="rgb(41.064453%, 63.739014%, 31.167603%)" offset="0.179688"/><stop stop-opacity="1" stop-color="rgb(40.849304%, 63.557434%, 30.984497%)" offset="0.1875"/><stop stop-opacity="1" stop-color="rgb(40.635681%, 63.37738%, 30.801392%)" offset="0.195312"/><stop stop-opacity="1" stop-color="rgb(40.420532%, 63.197327%, 30.61676%)" offset="0.203125"/><stop stop-opacity="1" stop-color="rgb(40.205383%, 63.017273%, 30.433655%)" offset="0.210938"/><stop stop-opacity="1" stop-color="rgb(39.990234%, 62.835693%, 30.250549%)" offset="0.21875"/><stop stop-opacity="1" stop-color="rgb(39.775085%, 62.65564%, 30.065918%)" offset="0.226562"/><stop stop-opacity="1" stop-color="rgb(39.561462%, 62.475586%, 29.882812%)" offset="0.234375"/><stop stop-opacity="1" stop-color="rgb(39.346313%, 62.294006%, 29.699707%)" offset="0.242188"/><stop stop-opacity="1" stop-color="rgb(39.131165%, 62.113953%, 29.515076%)" offset="0.25"/><stop stop-opacity="1" stop-color="rgb(38.916016%, 61.933899%, 29.33197%)" offset="0.257812"/><stop stop-opacity="1" stop-color="rgb(38.700867%, 61.753845%, 29.148865%)" offset="0.265625"/><stop stop-opacity="1" stop-color="rgb(38.487244%, 61.572266%, 28.965759%)" offset="0.273438"/><stop stop-opacity="1" stop-color="rgb(38.272095%, 61.392212%, 28.781128%)" offset="0.28125"/><stop stop-opacity="1" stop-color="rgb(38.056946%, 61.212158%, 28.598022%)" offset="0.289062"/><stop stop-opacity="1" stop-color="rgb(37.841797%, 61.032104%, 28.414917%)" offset="0.296875"/><stop stop-opacity="1" stop-color="rgb(37.626648%, 60.850525%, 28.230286%)" offset="0.304688"/><stop stop-opacity="1" stop-color="rgb(37.413025%, 60.670471%, 28.04718%)" offset="0.3125"/><stop stop-opacity="1" stop-color="rgb(37.197876%, 60.490417%, 27.864075%)" offset="0.320312"/><stop stop-opacity="1" stop-color="rgb(36.982727%, 60.308838%, 27.679443%)" offset="0.328125"/><stop stop-opacity="1" stop-color="rgb(36.767578%, 60.128784%, 27.496338%)" offset="0.335938"/><stop stop-opacity="1" stop-color="rgb(36.552429%, 59.94873%, 27.313232%)" offset="0.34375"/><stop stop-opacity="1" stop-color="rgb(36.338806%, 59.768677%, 27.128601%)" offset="0.351562"/><stop stop-opacity="1" stop-color="rgb(36.123657%, 59.587097%, 26.945496%)" offset="0.359375"/><stop stop-opacity="1" stop-color="rgb(35.908508%, 59.407043%, 26.76239%)" offset="0.367188"/><stop stop-opacity="1" stop-color="rgb(35.693359%, 59.22699%, 26.577759%)" offset="0.375"/><stop stop-opacity="1" stop-color="rgb(35.47821%, 59.046936%, 26.394653%)" offset="0.382812"/><stop stop-opacity="1" stop-color="rgb(35.264587%, 58.865356%, 26.211548%)" offset="0.390625"/><stop stop-opacity="1" stop-color="rgb(35.049438%, 58.685303%, 26.026917%)" offset="0.398438"/><stop stop-opacity="1" stop-color="rgb(34.83429%, 58.505249%, 25.843811%)" offset="0.40625"/><stop stop-opacity="1" stop-color="rgb(34.619141%, 58.323669%, 25.660706%)" offset="0.414062"/><stop stop-opacity="1" stop-color="rgb(34.403992%, 58.143616%, 25.476074%)" offset="0.421875"/><stop stop-opacity="1" stop-color="rgb(34.190369%, 57.963562%, 25.292969%)" offset="0.429688"/><stop stop-opacity="1" stop-color="rgb(33.97522%, 57.783508%, 25.109863%)" offset="0.4375"/><stop stop-opacity="1" stop-color="rgb(33.760071%, 57.601929%, 24.925232%)" offset="0.445312"/><stop stop-opacity="1" stop-color="rgb(33.544922%, 57.421875%, 24.742126%)" offset="0.453125"/><stop stop-opacity="1" stop-color="rgb(33.329773%, 57.241821%, 24.559021%)" offset="0.460938"/><stop stop-opacity="1" stop-color="rgb(33.11615%, 57.061768%, 24.375916%)" offset="0.46875"/><stop stop-opacity="1" stop-color="rgb(32.901001%, 56.880188%, 24.191284%)" offset="0.476562"/><stop stop-opacity="1" stop-color="rgb(32.685852%, 56.700134%, 24.008179%)" offset="0.484375"/><stop stop-opacity="1" stop-color="rgb(32.470703%, 56.520081%, 23.825073%)" offset="0.492188"/><stop stop-opacity="1" stop-color="rgb(32.255554%, 56.340027%, 23.640442%)" offset="0.5"/><stop stop-opacity="1" stop-color="rgb(32.041931%, 56.158447%, 23.457336%)" offset="0.507812"/><stop stop-opacity="1" stop-color="rgb(31.826782%, 55.978394%, 23.274231%)" offset="0.515625"/><stop stop-opacity="1" stop-color="rgb(31.611633%, 55.79834%, 23.0896%)" offset="0.523438"/><stop stop-opacity="1" stop-color="rgb(31.396484%, 55.61676%, 22.906494%)" offset="0.53125"/><stop stop-opacity="1" stop-color="rgb(31.181335%, 55.436707%, 22.723389%)" offset="0.539062"/><stop stop-opacity="1" stop-color="rgb(30.967712%, 55.256653%, 22.538757%)" offset="0.546875"/><stop stop-opacity="1" stop-color="rgb(30.752563%, 55.076599%, 22.355652%)" offset="0.554688"/><stop stop-opacity="1" stop-color="rgb(30.537415%, 54.89502%, 22.172546%)" offset="0.5625"/><stop stop-opacity="1" stop-color="rgb(30.322266%, 54.714966%, 21.987915%)" offset="0.570312"/><stop stop-opacity="1" stop-color="rgb(30.107117%, 54.534912%, 21.80481%)" offset="0.578125"/><stop stop-opacity="1" stop-color="rgb(29.893494%, 54.354858%, 21.621704%)" offset="0.585938"/><stop stop-opacity="1" stop-color="rgb(29.678345%, 54.173279%, 21.437073%)" offset="0.59375"/><stop stop-opacity="1" stop-color="rgb(29.463196%, 53.993225%, 21.253967%)" offset="0.601562"/><stop stop-opacity="1" stop-color="rgb(29.248047%, 53.813171%, 21.070862%)" offset="0.609375"/><stop stop-opacity="1" stop-color="rgb(29.032898%, 53.631592%, 20.88623%)" offset="0.617188"/><stop stop-opacity="1" stop-color="rgb(28.819275%, 53.451538%, 20.703125%)" offset="0.625"/><stop stop-opacity="1" stop-color="rgb(28.604126%, 53.271484%, 20.52002%)" offset="0.632812"/><stop stop-opacity="1" stop-color="rgb(28.388977%, 53.091431%, 20.335388%)" offset="0.640625"/><stop stop-opacity="1" stop-color="rgb(28.173828%, 52.909851%, 20.152283%)" offset="0.648438"/><stop stop-opacity="1" stop-color="rgb(27.958679%, 52.729797%, 19.969177%)" offset="0.65625"/><stop stop-opacity="1" stop-color="rgb(27.745056%, 52.549744%, 19.786072%)" offset="0.664062"/><stop stop-opacity="1" stop-color="rgb(27.529907%, 52.36969%, 19.60144%)" offset="0.671875"/><stop stop-opacity="1" stop-color="rgb(27.314758%, 52.18811%, 19.418335%)" offset="0.679688"/><stop stop-opacity="1" stop-color="rgb(27.099609%, 52.008057%, 19.235229%)" offset="0.6875"/><stop stop-opacity="1" stop-color="rgb(26.88446%, 51.828003%, 19.050598%)" offset="0.695312"/><stop stop-opacity="1" stop-color="rgb(26.670837%, 51.646423%, 18.867493%)" offset="0.703125"/><stop stop-opacity="1" stop-color="rgb(26.455688%, 51.46637%, 18.684387%)" offset="0.710938"/><stop stop-opacity="1" stop-color="rgb(26.24054%, 51.286316%, 18.499756%)" offset="0.71875"/><stop stop-opacity="1" stop-color="rgb(26.025391%, 51.106262%, 18.31665%)" offset="0.726562"/><stop stop-opacity="1" stop-color="rgb(25.810242%, 50.924683%, 18.133545%)" offset="0.734375"/><stop stop-opacity="1" stop-color="rgb(25.596619%, 50.744629%, 17.948914%)" offset="0.742188"/><stop stop-opacity="1" stop-color="rgb(25.38147%, 50.564575%, 17.765808%)" offset="0.75"/><stop stop-opacity="1" stop-color="rgb(25.166321%, 50.384521%, 17.582703%)" offset="0.757812"/><stop stop-opacity="1" stop-color="rgb(24.951172%, 50.202942%, 17.398071%)" offset="0.765625"/><stop stop-opacity="1" stop-color="rgb(24.736023%, 50.022888%, 17.214966%)" offset="0.773438"/><stop stop-opacity="1" stop-color="rgb(24.5224%, 49.842834%, 17.03186%)" offset="0.78125"/><stop stop-opacity="1" stop-color="rgb(24.307251%, 49.661255%, 16.847229%)" offset="0.789062"/><stop stop-opacity="1" stop-color="rgb(24.092102%, 49.481201%, 16.664124%)" offset="0.796875"/><stop stop-opacity="1" stop-color="rgb(23.876953%, 49.301147%, 16.481018%)" offset="0.804688"/><stop stop-opacity="1" stop-color="rgb(23.661804%, 49.121094%, 16.296387%)" offset="0.8125"/><stop stop-opacity="1" stop-color="rgb(23.448181%, 48.939514%, 16.113281%)" offset="0.820312"/><stop stop-opacity="1" stop-color="rgb(23.233032%, 48.75946%, 15.930176%)" offset="0.828125"/><stop stop-opacity="1" stop-color="rgb(23.017883%, 48.579407%, 15.745544%)" offset="0.835938"/><stop stop-opacity="1" stop-color="rgb(22.802734%, 48.399353%, 15.562439%)" offset="0.84375"/><stop stop-opacity="1" stop-color="rgb(22.587585%, 48.217773%, 15.379333%)" offset="0.851562"/><stop stop-opacity="1" stop-color="rgb(22.373962%, 48.03772%, 15.196228%)" offset="0.859375"/><stop stop-opacity="1" stop-color="rgb(22.158813%, 47.857666%, 15.011597%)" offset="0.867188"/><stop stop-opacity="1" stop-color="rgb(21.943665%, 47.676086%, 14.828491%)" offset="0.875"/><stop stop-opacity="1" stop-color="rgb(21.728516%, 47.496033%, 14.645386%)" offset="0.882812"/><stop stop-opacity="1" stop-color="rgb(21.513367%, 47.315979%, 14.460754%)" offset="0.890625"/><stop stop-opacity="1" stop-color="rgb(21.299744%, 47.135925%, 14.277649%)" offset="0.898438"/><stop stop-opacity="1" stop-color="rgb(21.084595%, 46.954346%, 14.094543%)" offset="0.90625"/><stop stop-opacity="1" stop-color="rgb(20.869446%, 46.774292%, 13.909912%)" offset="0.914062"/><stop stop-opacity="1" stop-color="rgb(20.654297%, 46.594238%, 13.726807%)" offset="0.921875"/><stop stop-opacity="1" stop-color="rgb(20.439148%, 46.414185%, 13.543701%)" offset="0.929688"/><stop stop-opacity="1" stop-color="rgb(20.225525%, 46.232605%, 13.35907%)" offset="0.9375"/><stop stop-opacity="1" stop-color="rgb(20.010376%, 46.052551%, 13.175964%)" offset="0.945312"/><stop stop-opacity="1" stop-color="rgb(19.795227%, 45.872498%, 12.992859%)" offset="0.953125"/><stop stop-opacity="1" stop-color="rgb(19.580078%, 45.690918%, 12.808228%)" offset="0.960938"/><stop stop-opacity="1" stop-color="rgb(19.364929%, 45.510864%, 12.625122%)" offset="0.96875"/><stop stop-opacity="1" stop-color="rgb(19.151306%, 45.330811%, 12.442017%)" offset="0.976562"/><stop stop-opacity="1" stop-color="rgb(18.936157%, 45.150757%, 12.257385%)" offset="0.984375"/><stop stop-opacity="1" stop-color="rgb(18.721008%, 44.969177%, 12.07428%)" offset="0.992188"/><stop stop-opacity="1" stop-color="rgb(18.505859%, 44.789124%, 11.891174%)" offset="1"/></linearGradient><clipPath id="d6f49f3aaf"><path d="M 41 35.414062 L 158 35.414062 L 158 166 L 41 166 Z M 41 35.414062 " clip-rule="nonzero"/></clipPath></defs><g clip-path="url(#4dd3a4ad91)"><rect x="-19.2" fill="url(#5c218f462b)" width="230.4" y="-19.2" height="230.399995"/></g><g clip-path="url(#d6f49f3aaf)"><path fill="#ffffff" d="M 138.957031 103.722656 L 138.957031 47.042969 C 138.957031 46.277344 138.878906 45.523438 138.730469 44.773438 C 138.582031 44.023438 138.363281 43.296875 138.070312 42.589844 C 137.777344 41.886719 137.417969 41.214844 136.996094 40.582031 C 136.570312 39.945312 136.089844 39.359375 135.550781 38.820312 C 135.007812 38.277344 134.421875 37.796875 133.785156 37.371094 C 133.152344 36.949219 132.480469 36.589844 131.777344 36.296875 C 131.070312 36.003906 130.34375 35.785156 129.59375 35.636719 C 128.847656 35.488281 128.089844 35.414062 127.324219 35.414062 L 52.898438 35.414062 C 52.136719 35.414062 51.378906 35.488281 50.628906 35.636719 C 49.882812 35.785156 49.152344 36.003906 48.449219 36.296875 C 47.742188 36.589844 47.074219 36.949219 46.4375 37.371094 C 45.804688 37.796875 45.214844 38.277344 44.675781 38.820312 C 44.136719 39.359375 43.652344 39.945312 43.230469 40.582031 C 42.804688 41.214844 42.445312 41.886719 42.15625 42.589844 C 41.863281 43.296875 41.640625 44.023438 41.492188 44.773438 C 41.34375 45.523438 41.269531 46.277344 41.269531 47.042969 L 41.269531 130.773438 C 41.269531 131.535156 41.34375 132.292969 41.492188 133.039062 C 41.640625 133.789062 41.863281 134.515625 42.15625 135.222656 C 42.445312 135.929688 42.804688 136.597656 43.230469 137.234375 C 43.652344 137.867188 44.136719 138.457031 44.675781 138.996094 C 45.214844 139.535156 45.804688 140.015625 46.4375 140.441406 C 47.074219 140.867188 47.742188 141.222656 48.449219 141.515625 C 49.152344 141.808594 49.882812 142.027344 50.628906 142.179688 C 51.378906 142.328125 52.136719 142.402344 52.898438 142.402344 L 93.8125 142.402344 C 94.003906 143.050781 94.214844 143.691406 94.445312 144.324219 C 94.675781 144.960938 94.929688 145.585938 95.199219 146.207031 C 95.46875 146.824219 95.761719 147.433594 96.070312 148.035156 C 96.378906 148.636719 96.703125 149.226562 97.050781 149.808594 C 97.394531 150.390625 97.757812 150.957031 98.140625 151.515625 C 98.519531 152.074219 98.917969 152.621094 99.332031 153.152344 C 99.75 153.6875 100.179688 154.207031 100.625 154.714844 C 101.074219 155.21875 101.535156 155.710938 102.015625 156.1875 C 102.492188 156.667969 102.984375 157.128906 103.492188 157.574219 C 104 158.023438 104.519531 158.453125 105.050781 158.867188 C 105.585938 159.28125 106.132812 159.679688 106.6875 160.0625 C 107.246094 160.441406 107.816406 160.804688 108.398438 161.148438 C 108.980469 161.496094 109.570312 161.820312 110.171875 162.128906 C 110.773438 162.4375 111.382812 162.726562 112 163 C 112.621094 163.269531 113.246094 163.519531 113.882812 163.75 C 114.515625 163.984375 115.160156 164.195312 115.808594 164.386719 C 116.453125 164.578125 117.109375 164.746094 117.765625 164.898438 C 118.425781 165.050781 119.089844 165.179688 119.753906 165.289062 C 120.421875 165.398438 121.089844 165.488281 121.761719 165.554688 C 122.433594 165.625 123.109375 165.671875 123.785156 165.695312 C 124.460938 165.722656 125.136719 165.726562 125.808594 165.710938 C 126.484375 165.695312 127.160156 165.65625 127.832031 165.597656 C 128.507812 165.542969 129.175781 165.460938 129.84375 165.363281 C 130.515625 165.261719 131.179688 165.140625 131.839844 165 C 132.5 164.859375 133.15625 164.699219 133.804688 164.515625 C 134.457031 164.332031 135.101562 164.132812 135.738281 163.910156 C 136.378906 163.6875 137.007812 163.445312 137.632812 163.183594 C 138.253906 162.921875 138.867188 162.640625 139.472656 162.34375 C 140.078125 162.042969 140.675781 161.722656 141.261719 161.386719 C 141.847656 161.050781 142.421875 160.695312 142.984375 160.324219 C 143.550781 159.953125 144.101562 159.5625 144.640625 159.15625 C 145.179688 158.75 145.707031 158.324219 146.21875 157.886719 C 146.730469 157.445312 147.230469 156.992188 147.714844 156.519531 C 148.199219 156.050781 148.667969 155.5625 149.125 155.0625 C 149.578125 154.5625 150.019531 154.050781 150.441406 153.523438 C 150.863281 152.996094 151.269531 152.457031 151.65625 151.902344 C 152.046875 151.351562 152.417969 150.789062 152.773438 150.210938 C 153.125 149.636719 153.460938 149.050781 153.777344 148.453125 C 154.097656 147.855469 154.394531 147.25 154.675781 146.636719 C 154.953125 146.019531 155.214844 145.398438 155.457031 144.765625 C 155.695312 144.136719 155.917969 143.496094 156.117188 142.851562 C 156.320312 142.207031 156.5 141.558594 156.660156 140.898438 C 156.820312 140.242188 156.960938 139.582031 157.082031 138.917969 C 157.199219 138.253906 157.300781 137.585938 157.378906 136.914062 C 157.457031 136.242188 157.511719 135.570312 157.546875 134.894531 C 157.585938 134.21875 157.597656 133.546875 157.59375 132.871094 C 157.585938 132.195312 157.5625 131.519531 157.511719 130.84375 C 157.464844 130.171875 157.394531 129.5 157.304688 128.828125 C 157.214844 128.160156 157.105469 127.492188 156.972656 126.832031 C 156.84375 126.167969 156.691406 125.511719 156.519531 124.855469 C 156.347656 124.203125 156.15625 123.554688 155.941406 122.914062 C 155.730469 122.273438 155.496094 121.640625 155.246094 121.011719 C 154.992188 120.386719 154.722656 119.765625 154.429688 119.15625 C 154.140625 118.546875 153.832031 117.945312 153.503906 117.355469 C 153.175781 116.765625 152.828125 116.183594 152.464844 115.617188 C 152.101562 115.046875 151.71875 114.488281 151.320312 113.945312 C 150.921875 113.398438 150.507812 112.867188 150.074219 112.347656 C 149.644531 111.828125 149.195312 111.320312 148.734375 110.828125 C 148.269531 110.335938 147.792969 109.859375 147.296875 109.398438 C 146.804688 108.9375 146.296875 108.488281 145.777344 108.058594 C 145.257812 107.628906 144.722656 107.214844 144.175781 106.816406 C 143.628906 106.421875 143.070312 106.039062 142.5 105.679688 C 141.929688 105.316406 141.351562 104.972656 140.757812 104.644531 C 140.167969 104.320312 139.566406 104.011719 138.957031 103.722656 Z M 134.304688 47.042969 L 134.304688 58.671875 L 106.394531 58.671875 L 106.394531 40.0625 L 127.324219 40.0625 C 127.785156 40.0625 128.238281 40.109375 128.6875 40.199219 C 129.136719 40.289062 129.574219 40.417969 129.996094 40.59375 C 130.417969 40.769531 130.820312 40.984375 131.203125 41.238281 C 131.582031 41.496094 131.9375 41.785156 132.261719 42.109375 C 132.582031 42.433594 132.875 42.785156 133.128906 43.164062 C 133.382812 43.546875 133.597656 43.949219 133.773438 44.371094 C 133.949219 44.792969 134.082031 45.230469 134.167969 45.679688 C 134.257812 46.128906 134.304688 46.582031 134.304688 47.042969 Z M 78.484375 40.0625 L 101.742188 40.0625 L 101.742188 70.648438 C 101.742188 70.910156 101.691406 71.164062 101.589844 71.40625 C 101.492188 71.648438 101.347656 71.863281 101.164062 72.046875 C 100.976562 72.230469 100.761719 72.375 100.519531 72.476562 C 100.277344 72.574219 100.027344 72.625 99.765625 72.625 C 99.386719 72.625 99.039062 72.527344 98.714844 72.328125 C 98.394531 72.132812 98.148438 71.867188 97.972656 71.53125 L 96.066406 67.695312 C 95.792969 67.140625 95.449219 66.636719 95.03125 66.175781 C 94.617188 65.71875 94.148438 65.328125 93.621094 65 C 93.097656 64.675781 92.539062 64.425781 91.941406 64.257812 C 91.347656 64.089844 90.742188 64.003906 90.125 64.003906 C 89.507812 64.003906 88.898438 64.089844 88.304688 64.257812 C 87.710938 64.425781 87.152344 64.675781 86.625 65 C 86.101562 65.328125 85.632812 65.71875 85.214844 66.175781 C 84.800781 66.636719 84.457031 67.140625 84.179688 67.695312 L 82.25 71.554688 C 82.078125 71.890625 81.832031 72.15625 81.507812 72.351562 C 81.1875 72.550781 80.835938 72.648438 80.460938 72.648438 C 80.199219 72.648438 79.945312 72.597656 79.703125 72.5 C 79.460938 72.398438 79.246094 72.253906 79.0625 72.070312 C 78.875 71.882812 78.734375 71.671875 78.632812 71.429688 C 78.535156 71.1875 78.484375 70.933594 78.484375 70.671875 Z M 52.898438 40.0625 L 73.832031 40.0625 L 73.832031 58.671875 L 45.921875 58.671875 L 45.921875 47.042969 C 45.921875 46.582031 45.964844 46.128906 46.054688 45.679688 C 46.144531 45.230469 46.277344 44.792969 46.453125 44.371094 C 46.628906 43.949219 46.84375 43.546875 47.097656 43.164062 C 47.351562 42.785156 47.640625 42.433594 47.964844 42.109375 C 48.289062 41.785156 48.640625 41.496094 49.023438 41.238281 C 49.402344 40.984375 49.804688 40.769531 50.230469 40.59375 C 50.652344 40.417969 51.089844 40.289062 51.539062 40.199219 C 51.988281 40.109375 52.441406 40.0625 52.898438 40.0625 Z M 52.898438 137.75 C 52.441406 137.75 51.988281 137.703125 51.539062 137.617188 C 51.089844 137.527344 50.652344 137.394531 50.230469 137.21875 C 49.804688 137.042969 49.402344 136.828125 49.023438 136.574219 C 48.640625 136.320312 48.289062 136.03125 47.964844 135.707031 C 47.640625 135.382812 47.351562 135.03125 47.097656 134.648438 C 46.84375 134.269531 46.628906 133.867188 46.453125 133.441406 C 46.277344 133.019531 46.144531 132.582031 46.054688 132.132812 C 45.964844 131.683594 45.921875 131.230469 45.921875 130.773438 L 45.921875 63.324219 L 73.832031 63.324219 L 73.832031 70.648438 C 73.832031 71.082031 73.875 71.515625 73.960938 71.941406 C 74.046875 72.367188 74.175781 72.78125 74.34375 73.183594 C 74.507812 73.582031 74.714844 73.964844 74.957031 74.324219 C 75.199219 74.6875 75.472656 75.023438 75.78125 75.328125 C 76.085938 75.636719 76.421875 75.910156 76.78125 76.152344 C 77.144531 76.394531 77.527344 76.601562 77.925781 76.765625 C 78.328125 76.933594 78.742188 77.058594 79.167969 77.144531 C 79.59375 77.230469 80.027344 77.277344 80.460938 77.277344 C 81.074219 77.28125 81.679688 77.203125 82.273438 77.035156 C 82.867188 76.871094 83.425781 76.628906 83.949219 76.304688 C 84.476562 75.980469 84.945312 75.59375 85.359375 75.136719 C 85.773438 74.683594 86.117188 74.179688 86.390625 73.625 L 88.34375 69.742188 C 88.507812 69.402344 88.75 69.136719 89.070312 68.9375 C 89.390625 68.738281 89.738281 68.644531 90.113281 68.648438 C 90.492188 68.648438 90.847656 68.746094 91.167969 68.949219 C 91.492188 69.148438 91.738281 69.421875 91.902344 69.765625 L 93.832031 73.625 C 94.105469 74.179688 94.449219 74.683594 94.867188 75.136719 C 95.28125 75.59375 95.75 75.980469 96.273438 76.304688 C 96.800781 76.628906 97.359375 76.871094 97.949219 77.035156 C 98.542969 77.203125 99.148438 77.28125 99.765625 77.277344 C 100.199219 77.277344 100.628906 77.230469 101.054688 77.144531 C 101.484375 77.058594 101.894531 76.933594 102.296875 76.765625 C 102.699219 76.601562 103.082031 76.394531 103.441406 76.152344 C 103.804688 75.910156 104.136719 75.636719 104.445312 75.328125 C 104.753906 75.023438 105.027344 74.6875 105.269531 74.324219 C 105.511719 73.964844 105.714844 73.582031 105.882812 73.183594 C 106.050781 72.78125 106.175781 72.367188 106.261719 71.941406 C 106.347656 71.515625 106.390625 71.082031 106.394531 70.648438 L 106.394531 63.324219 L 134.304688 63.324219 L 134.304688 101.910156 C 133.699219 101.726562 133.089844 101.566406 132.476562 101.421875 C 131.859375 101.277344 131.242188 101.148438 130.621094 101.039062 C 130 100.929688 129.375 100.839844 128.75 100.765625 C 128.121094 100.695312 127.492188 100.640625 126.863281 100.605469 C 126.234375 100.566406 125.601562 100.550781 124.972656 100.550781 C 124.339844 100.550781 123.710938 100.570312 123.078125 100.609375 C 122.449219 100.644531 121.820312 100.699219 121.195312 100.773438 C 120.566406 100.847656 119.945312 100.941406 119.320312 101.050781 C 118.699219 101.160156 118.082031 101.289062 117.46875 101.433594 C 116.855469 101.578125 116.246094 101.742188 115.640625 101.925781 C 115.035156 102.105469 114.4375 102.304688 113.84375 102.519531 C 113.253906 102.738281 112.667969 102.972656 112.085938 103.222656 C 111.507812 103.472656 110.9375 103.738281 110.371094 104.023438 C 109.808594 104.304688 109.253906 104.605469 108.707031 104.921875 C 108.160156 105.238281 107.625 105.566406 107.097656 105.914062 C 106.570312 106.261719 106.054688 106.625 105.546875 107 C 105.039062 107.378906 104.546875 107.769531 104.0625 108.175781 C 103.578125 108.582031 103.109375 109 102.648438 109.433594 C 102.191406 109.867188 101.746094 110.3125 101.3125 110.773438 C 100.878906 111.230469 100.460938 111.703125 100.054688 112.1875 C 99.648438 112.667969 99.257812 113.164062 98.878906 113.671875 C 98.503906 114.175781 98.140625 114.695312 97.792969 115.222656 C 97.449219 115.75 97.117188 116.285156 96.800781 116.832031 C 96.484375 117.378906 96.1875 117.933594 95.902344 118.496094 C 95.621094 119.0625 95.351562 119.632812 95.101562 120.210938 C 94.851562 120.792969 94.621094 121.378906 94.402344 121.972656 C 94.1875 122.5625 93.988281 123.164062 93.808594 123.765625 C 93.628906 124.371094 93.464844 124.980469 93.316406 125.59375 C 93.171875 126.210938 93.042969 126.828125 92.933594 127.449219 C 92.824219 128.070312 92.734375 128.695312 92.660156 129.320312 C 92.585938 129.949219 92.53125 130.578125 92.496094 131.207031 C 92.457031 131.835938 92.4375 132.46875 92.4375 133.097656 C 92.457031 134.65625 92.582031 136.207031 92.808594 137.75 Z M 125 161.007812 C 124.085938 161.007812 123.175781 160.964844 122.265625 160.875 C 121.355469 160.785156 120.453125 160.648438 119.554688 160.472656 C 118.660156 160.292969 117.773438 160.070312 116.898438 159.804688 C 116.023438 159.542969 115.164062 159.234375 114.320312 158.882812 C 113.476562 158.535156 112.648438 158.144531 111.84375 157.710938 C 111.039062 157.28125 110.253906 156.8125 109.492188 156.304688 C 108.734375 155.796875 108 155.253906 107.292969 154.671875 C 106.585938 154.09375 105.910156 153.480469 105.265625 152.832031 C 104.617188 152.1875 104.003906 151.511719 103.425781 150.804688 C 102.84375 150.097656 102.300781 149.363281 101.792969 148.605469 C 101.285156 147.84375 100.816406 147.0625 100.386719 146.253906 C 99.953125 145.449219 99.5625 144.625 99.214844 143.777344 C 98.863281 142.933594 98.558594 142.074219 98.292969 141.199219 C 98.027344 140.324219 97.804688 139.441406 97.625 138.542969 C 97.449219 137.644531 97.3125 136.742188 97.222656 135.832031 C 97.136719 134.925781 97.089844 134.011719 97.089844 133.097656 C 97.089844 132.183594 97.136719 131.273438 97.222656 130.363281 C 97.3125 129.453125 97.449219 128.550781 97.625 127.652344 C 97.804688 126.757812 98.027344 125.871094 98.292969 124.996094 C 98.558594 124.121094 98.863281 123.261719 99.214844 122.417969 C 99.5625 121.574219 99.953125 120.746094 100.386719 119.941406 C 100.816406 119.136719 101.285156 118.351562 101.792969 117.59375 C 102.300781 116.832031 102.84375 116.097656 103.425781 115.390625 C 104.003906 114.683594 104.617188 114.007812 105.265625 113.363281 C 105.910156 112.714844 106.585938 112.101562 107.292969 111.523438 C 108 110.941406 108.734375 110.398438 109.492188 109.890625 C 110.253906 109.382812 111.039062 108.914062 111.84375 108.484375 C 112.648438 108.050781 113.476562 107.664062 114.320312 107.3125 C 115.164062 106.960938 116.023438 106.65625 116.898438 106.390625 C 117.773438 106.125 118.660156 105.902344 119.554688 105.722656 C 120.453125 105.546875 121.355469 105.410156 122.265625 105.320312 C 123.175781 105.234375 124.085938 105.1875 125 105.1875 C 125.914062 105.1875 126.828125 105.234375 127.734375 105.320312 C 128.644531 105.410156 129.546875 105.546875 130.445312 105.722656 C 131.339844 105.902344 132.226562 106.125 133.101562 106.390625 C 133.976562 106.65625 134.835938 106.960938 135.679688 107.3125 C 136.527344 107.664062 137.351562 108.050781 138.15625 108.484375 C 138.964844 108.914062 139.746094 109.382812 140.507812 109.890625 C 141.265625 110.398438 142 110.941406 142.707031 111.523438 C 143.414062 112.101562 144.089844 112.714844 144.734375 113.363281 C 145.382812 114.007812 145.996094 114.683594 146.574219 115.390625 C 147.15625 116.097656 147.699219 116.832031 148.207031 117.59375 C 148.714844 118.351562 149.183594 119.136719 149.613281 119.941406 C 150.046875 120.746094 150.4375 121.574219 150.785156 122.417969 C 151.136719 123.261719 151.441406 124.121094 151.707031 124.996094 C 151.972656 125.871094 152.195312 126.757812 152.375 127.652344 C 152.550781 128.550781 152.6875 129.453125 152.777344 130.363281 C 152.867188 131.273438 152.910156 132.183594 152.910156 133.097656 C 152.910156 134.011719 152.867188 134.925781 152.777344 135.832031 C 152.6875 136.742188 152.550781 137.644531 152.375 138.542969 C 152.195312 139.441406 151.972656 140.324219 151.707031 141.199219 C 151.441406 142.074219 151.136719 142.933594 150.785156 143.777344 C 150.4375 144.625 150.046875 145.449219 149.613281 146.253906 C 149.183594 147.0625 148.714844 147.84375 148.207031 148.605469 C 147.699219 149.363281 147.15625 150.097656 146.574219 150.804688 C 145.996094 151.511719 145.382812 152.1875 144.734375 152.832031 C 144.089844 153.480469 143.414062 154.09375 142.707031 154.671875 C 142 155.253906 141.265625 155.796875 140.507812 156.304688 C 139.746094 156.8125 138.964844 157.28125 138.15625 157.710938 C 137.351562 158.144531 136.527344 158.535156 135.679688 158.882812 C 134.835938 159.234375 133.976562 159.542969 133.101562 159.804688 C 132.226562 160.070312 131.339844 160.292969 130.445312 160.472656 C 129.546875 160.648438 128.644531 160.785156 127.734375 160.875 C 126.828125 160.964844 125.914062 161.007812 125 161.007812 Z M 131.28125 136.097656 C 131.738281 135.152344 131.972656 134.152344 131.976562 133.097656 C 131.976562 132.378906 131.863281 131.675781 131.644531 130.988281 C 131.425781 130.304688 131.109375 129.667969 130.691406 129.082031 C 130.273438 128.492188 129.78125 127.984375 129.207031 127.550781 C 128.632812 127.117188 128.003906 126.777344 127.324219 126.539062 L 127.324219 119.144531 C 127.324219 118.835938 127.265625 118.539062 127.148438 118.253906 C 127.03125 117.96875 126.863281 117.714844 126.644531 117.5 C 126.425781 117.28125 126.175781 117.113281 125.890625 116.992188 C 125.605469 116.875 125.308594 116.816406 125 116.816406 C 124.691406 116.816406 124.394531 116.875 124.109375 116.992188 C 123.824219 117.113281 123.574219 117.28125 123.355469 117.5 C 123.136719 117.714844 122.96875 117.96875 122.851562 118.253906 C 122.734375 118.539062 122.675781 118.835938 122.675781 119.144531 L 122.675781 126.539062 C 122.292969 126.675781 121.925781 126.847656 121.574219 127.050781 C 121.222656 127.253906 120.890625 127.484375 120.578125 127.746094 C 120.269531 128.003906 119.980469 128.289062 119.71875 128.601562 C 119.457031 128.910156 119.226562 129.242188 119.019531 129.59375 C 118.816406 129.945312 118.644531 130.308594 118.503906 130.691406 C 118.363281 131.074219 118.257812 131.460938 118.1875 131.863281 C 118.113281 132.261719 118.078125 132.664062 118.078125 133.070312 C 118.074219 133.476562 118.109375 133.878906 118.175781 134.28125 C 118.246094 134.679688 118.347656 135.070312 118.484375 135.453125 C 118.625 135.835938 118.792969 136.203125 118.992188 136.554688 C 119.195312 136.90625 119.425781 137.242188 119.683594 137.554688 C 119.941406 137.867188 120.226562 138.152344 120.535156 138.417969 C 120.847656 138.679688 121.175781 138.914062 121.527344 139.117188 C 121.875 139.324219 122.242188 139.496094 122.621094 139.636719 C 123.003906 139.78125 123.394531 139.886719 123.792969 139.960938 C 124.191406 140.035156 124.59375 140.074219 125 140.074219 C 126.054688 140.070312 127.054688 139.835938 128 139.378906 L 137.304688 148.679688 C 137.523438 148.902344 137.773438 149.070312 138.0625 149.191406 C 138.347656 149.308594 138.644531 149.371094 138.957031 149.371094 C 139.265625 149.371094 139.5625 149.308594 139.851562 149.191406 C 140.136719 149.070312 140.386719 148.902344 140.605469 148.679688 C 140.828125 148.460938 140.996094 148.210938 141.117188 147.925781 C 141.234375 147.636719 141.292969 147.339844 141.292969 147.03125 C 141.292969 146.71875 141.234375 146.421875 141.117188 146.136719 C 140.996094 145.847656 140.828125 145.597656 140.605469 145.378906 Z M 122.675781 133.097656 C 122.675781 132.789062 122.734375 132.492188 122.851562 132.207031 C 122.96875 131.921875 123.136719 131.671875 123.355469 131.453125 C 123.574219 131.234375 123.824219 131.066406 124.109375 130.949219 C 124.394531 130.832031 124.691406 130.773438 125 130.773438 C 125.308594 130.773438 125.605469 130.832031 125.890625 130.949219 C 126.175781 131.066406 126.425781 131.234375 126.644531 131.453125 C 126.863281 131.671875 127.03125 131.921875 127.148438 132.207031 C 127.265625 132.492188 127.324219 132.789062 127.324219 133.097656 C 127.324219 133.734375 127.097656 134.277344 126.652344 134.726562 C 126.199219 135.1875 125.648438 135.421875 125 135.425781 C 124.691406 135.425781 124.394531 135.363281 124.109375 135.246094 C 123.824219 135.128906 123.574219 134.960938 123.355469 134.742188 C 123.136719 134.523438 122.96875 134.273438 122.851562 133.988281 C 122.734375 133.703125 122.675781 133.40625 122.675781 133.097656 Z M 76.15625 114.492188 L 57.550781 114.492188 C 57.09375 114.492188 56.640625 114.535156 56.1875 114.625 C 55.738281 114.714844 55.304688 114.847656 54.878906 115.023438 C 54.457031 115.199219 54.054688 115.414062 53.675781 115.667969 C 53.292969 115.921875 52.941406 116.210938 52.617188 116.535156 C 52.292969 116.859375 52.003906 117.210938 51.75 117.59375 C 51.496094 117.972656 51.28125 118.375 51.105469 118.796875 C 50.929688 119.222656 50.796875 119.65625 50.707031 120.109375 C 50.617188 120.558594 50.574219 121.011719 50.574219 121.46875 L 50.574219 126.121094 C 50.574219 126.578125 50.617188 127.03125 50.707031 127.480469 C 50.796875 127.929688 50.929688 128.367188 51.105469 128.789062 C 51.28125 129.214844 51.496094 129.617188 51.75 129.996094 C 52.003906 130.378906 52.292969 130.730469 52.617188 131.054688 C 52.941406 131.378906 53.292969 131.667969 53.675781 131.921875 C 54.054688 132.175781 54.457031 132.390625 54.878906 132.566406 C 55.304688 132.742188 55.738281 132.875 56.1875 132.964844 C 56.640625 133.054688 57.09375 133.097656 57.550781 133.097656 L 76.15625 133.097656 C 76.617188 133.097656 77.070312 133.054688 77.519531 132.964844 C 77.96875 132.875 78.40625 132.742188 78.828125 132.566406 C 79.25 132.390625 79.652344 132.175781 80.035156 131.921875 C 80.414062 131.667969 80.765625 131.378906 81.089844 131.054688 C 81.414062 130.730469 81.703125 130.378906 81.960938 129.996094 C 82.214844 129.617188 82.429688 129.214844 82.605469 128.789062 C 82.777344 128.367188 82.910156 127.929688 83 127.480469 C 83.089844 127.03125 83.136719 126.578125 83.136719 126.121094 L 83.136719 121.46875 C 83.136719 121.011719 83.089844 120.558594 83 120.109375 C 82.910156 119.65625 82.777344 119.222656 82.605469 118.796875 C 82.429688 118.375 82.214844 117.972656 81.960938 117.59375 C 81.703125 117.210938 81.414062 116.859375 81.089844 116.535156 C 80.765625 116.210938 80.414062 115.921875 80.035156 115.667969 C 79.652344 115.414062 79.25 115.199219 78.828125 115.023438 C 78.40625 114.847656 77.96875 114.714844 77.519531 114.625 C 77.070312 114.535156 76.617188 114.492188 76.15625 114.492188 Z M 78.484375 126.121094 C 78.484375 126.429688 78.425781 126.726562 78.304688 127.011719 C 78.1875 127.296875 78.019531 127.546875 77.800781 127.765625 C 77.582031 127.984375 77.332031 128.152344 77.046875 128.269531 C 76.761719 128.386719 76.464844 128.445312 76.15625 128.445312 L 57.550781 128.445312 C 57.242188 128.445312 56.945312 128.386719 56.660156 128.269531 C 56.375 128.152344 56.125 127.984375 55.90625 127.765625 C 55.6875 127.546875 55.519531 127.296875 55.402344 127.011719 C 55.285156 126.726562 55.226562 126.429688 55.226562 126.121094 L 55.226562 121.46875 C 55.226562 121.160156 55.285156 120.863281 55.402344 120.578125 C 55.519531 120.292969 55.6875 120.042969 55.90625 119.824219 C 56.125 119.605469 56.375 119.4375 56.660156 119.320312 C 56.945312 119.203125 57.242188 119.144531 57.550781 119.144531 L 76.15625 119.144531 C 76.464844 119.144531 76.761719 119.203125 77.046875 119.320312 C 77.332031 119.4375 77.582031 119.605469 77.800781 119.824219 C 78.019531 120.042969 78.1875 120.292969 78.304688 120.578125 C 78.425781 120.863281 78.484375 121.160156 78.484375 121.46875 Z M 73.832031 88.90625 C 73.832031 88.597656 73.890625 88.300781 74.007812 88.015625 C 74.125 87.730469 74.292969 87.480469 74.511719 87.261719 C 74.730469 87.042969 74.980469 86.875 75.265625 86.757812 C 75.550781 86.640625 75.847656 86.582031 76.15625 86.582031 L 104.066406 86.582031 C 104.375 86.582031 104.671875 86.640625 104.957031 86.757812 C 105.242188 86.875 105.492188 87.042969 105.710938 87.261719 C 105.929688 87.480469 106.097656 87.730469 106.214844 88.015625 C 106.335938 88.300781 106.394531 88.597656 106.394531 88.90625 C 106.394531 89.214844 106.335938 89.511719 106.214844 89.796875 C 106.097656 90.082031 105.929688 90.332031 105.710938 90.550781 C 105.492188 90.769531 105.242188 90.9375 104.957031 91.054688 C 104.671875 91.171875 104.375 91.234375 104.066406 91.234375 L 76.15625 91.234375 C 75.847656 91.234375 75.550781 91.171875 75.265625 91.054688 C 74.980469 90.9375 74.730469 90.769531 74.511719 90.550781 C 74.292969 90.332031 74.125 90.082031 74.007812 89.796875 C 73.890625 89.511719 73.832031 89.214844 73.832031 88.90625 Z M 73.832031 98.210938 C 73.832031 97.902344 73.890625 97.605469 74.007812 97.320312 C 74.125 97.035156 74.292969 96.785156 74.511719 96.566406 C 74.730469 96.347656 74.980469 96.179688 75.265625 96.0625 C 75.550781 95.945312 75.847656 95.882812 76.15625 95.882812 L 104.066406 95.882812 C 104.375 95.882812 104.671875 95.945312 104.957031 96.0625 C 105.242188 96.179688 105.492188 96.347656 105.710938 96.566406 C 105.929688 96.785156 106.097656 97.035156 106.214844 97.320312 C 106.335938 97.605469 106.394531 97.902344 106.394531 98.210938 C 106.394531 98.519531 106.335938 98.816406 106.214844 99.101562 C 106.097656 99.386719 105.929688 99.636719 105.710938 99.855469 C 105.492188 100.074219 105.242188 100.242188 104.957031 100.359375 C 104.671875 100.476562 104.375 100.535156 104.066406 100.535156 L 76.15625 100.535156 C 75.847656 100.535156 75.550781 100.476562 75.265625 100.359375 C 74.980469 100.242188 74.730469 100.074219 74.511719 99.855469 C 74.292969 99.636719 74.125 99.386719 74.007812 99.101562 C 73.890625 98.816406 73.832031 98.519531 73.832031 98.210938 Z M 73.832031 98.210938 " fill-opacity="1" fill-rule="nonzero"/></g></svg>