<?xml version="1.0" encoding="UTF-8"?>
<svg xmlns="http://www.w3.org/2000/svg" xmlns:xlink="http://www.w3.org/1999/xlink" width="16px" height="16px" viewBox="0 0 16 16" version="1.1">
<g id="surface1">
<path style=" stroke:none;fill-rule:nonzero;fill:rgb(83.92157%,21.176471%,21.960784%);fill-opacity:1;" d="M 13 0 L 3 0 C 1.347656 0 0 1.347656 0 3 L 0 3.332031 C 0 3.921875 0.261719 4.445312 0.667969 4.8125 L 0.667969 12.667969 C 0.667969 14.503906 2.160156 16 4 16 L 6 16 C 6.367188 16 6.667969 15.703125 6.667969 15.332031 C 6.667969 14.964844 6.367188 14.667969 6 14.667969 L 4 14.667969 C 2.898438 14.667969 2 13.769531 2 12.667969 L 2 5.332031 L 14 5.332031 L 14 6 C 14 6.367188 14.296875 6.667969 14.667969 6.667969 C 15.035156 6.667969 15.332031 6.367188 15.332031 6 L 15.332031 4.8125 C 15.738281 4.449219 16 3.921875 16 3.332031 L 16 3 C 16 1.347656 14.652344 0 13 0 Z M 2 4 C 1.632812 4 1.332031 3.699219 1.332031 3.332031 L 1.332031 3 C 1.332031 2.082031 2.082031 1.332031 3 1.332031 L 13 1.332031 C 13.917969 1.332031 14.667969 2.082031 14.667969 3 L 14.667969 3.332031 C 14.667969 3.699219 14.367188 4 14 4 Z M 11.332031 6.667969 C 8.761719 6.667969 6.667969 8.761719 6.667969 11.332031 C 6.667969 13.90625 8.761719 16 11.332031 16 C 13.90625 16 16 13.90625 16 11.332031 C 16 8.761719 13.90625 6.667969 11.332031 6.667969 Z M 11.332031 14.667969 C 9.496094 14.667969 8 13.171875 8 11.332031 C 8 9.496094 9.496094 8 11.332031 8 C 13.171875 8 14.667969 9.496094 14.667969 11.332031 C 14.667969 13.171875 13.171875 14.667969 11.332031 14.667969 Z M 12.804688 11.863281 C 13.066406 12.121094 13.066406 12.542969 12.804688 12.804688 C 12.675781 12.933594 12.503906 13 12.332031 13 C 12.164062 13 11.992188 12.933594 11.863281 12.804688 L 10.863281 11.804688 C 10.738281 11.679688 10.667969 11.511719 10.667969 11.332031 L 10.667969 10 C 10.667969 9.632812 10.964844 9.332031 11.332031 9.332031 C 11.703125 9.332031 12 9.632812 12 10 L 12 11.058594 Z M 12.804688 11.863281 "/>
</g>
</svg>
