<?xml version="1.0" encoding="UTF-8"?>
<svg xmlns="http://www.w3.org/2000/svg" xmlns:xlink="http://www.w3.org/1999/xlink" width="16px" height="16px" viewBox="0 0 16 16" version="1.1">
<g id="surface1">
<path style=" stroke:none;fill-rule:nonzero;fill:rgb(83.92157%,21.176471%,21.960784%);fill-opacity:1;" d="M 6 16 L 0.667969 16 C 0.296875 16 0 15.703125 0 15.332031 C 0 14.964844 0.296875 14.667969 0.667969 14.667969 L 6 14.667969 C 6.367188 14.667969 6.667969 14.964844 6.667969 15.332031 C 6.667969 15.703125 6.367188 16 6 16 Z M 6 16 "/>
<path style=" stroke:none;fill-rule:nonzero;fill:rgb(83.92157%,21.176471%,21.960784%);fill-opacity:1;" d="M 4.667969 13.332031 L 0.667969 13.332031 C 0.296875 13.332031 0 13.035156 0 12.667969 C 0 12.296875 0.296875 12 0.667969 12 L 4.667969 12 C 5.035156 12 5.332031 12.296875 5.332031 12.667969 C 5.332031 13.035156 5.035156 13.332031 4.667969 13.332031 Z M 4.667969 13.332031 "/>
<path style=" stroke:none;fill-rule:nonzero;fill:rgb(83.92157%,21.176471%,21.960784%);fill-opacity:1;" d="M 3.332031 10.667969 L 0.667969 10.667969 C 0.296875 10.667969 0 10.367188 0 10 C 0 9.632812 0.296875 9.332031 0.667969 9.332031 L 3.332031 9.332031 C 3.703125 9.332031 4 9.632812 4 10 C 4 10.367188 3.703125 10.667969 3.332031 10.667969 Z M 3.332031 10.667969 "/>
<path style=" stroke:none;fill-rule:nonzero;fill:rgb(83.92157%,21.176471%,21.960784%);fill-opacity:1;" d="M 8.667969 15.96875 C 8.296875 15.988281 7.988281 15.703125 7.96875 15.332031 C 7.953125 14.964844 8.238281 14.652344 8.605469 14.636719 C 12.117188 14.316406 14.769531 11.316406 14.664062 7.792969 C 14.554688 4.269531 11.722656 1.441406 8.199219 1.335938 C 4.675781 1.226562 1.679688 3.882812 1.359375 7.394531 C 1.328125 7.761719 1.003906 8.03125 0.636719 7.996094 C 0.269531 7.964844 0 7.640625 0.03125 7.273438 C 0.417969 3.011719 4.089844 -0.191406 8.363281 0.00390625 C 12.636719 0.199219 16.003906 3.722656 16 8 C 16.019531 12.144531 12.855469 15.613281 8.726562 15.96875 C 8.707031 15.96875 8.6875 15.96875 8.667969 15.96875 Z M 8.667969 15.96875 "/>
<path style=" stroke:none;fill-rule:nonzero;fill:rgb(83.92157%,21.176471%,21.960784%);fill-opacity:1;" d="M 8 4 C 7.632812 4 7.332031 4.296875 7.332031 4.667969 L 7.332031 8 C 7.332031 8.175781 7.402344 8.347656 7.527344 8.472656 L 9.527344 10.472656 C 9.789062 10.722656 10.207031 10.71875 10.464844 10.464844 C 10.71875 10.207031 10.722656 9.789062 10.472656 9.527344 L 8.667969 7.722656 L 8.667969 4.667969 C 8.667969 4.296875 8.367188 4 8 4 Z M 8 4 "/>
</g>
</svg>
